G04 (created by PCBNEW (2013-may-18)-stable) date Sun 16 Aug 2015 06:52:27 PM CST*
%MOIN*%
G04 Gerber Fmt 3.4, Leading zero omitted, Abs format*
%FSLAX34Y34*%
G01*
G70*
G90*
G04 APERTURE LIST*
%ADD10C,0.00590551*%
%ADD11C,0.011811*%
%ADD12C,0.00787402*%
%ADD13C,0.0075*%
%ADD14C,0.0001*%
G04 APERTURE END LIST*
G54D10*
G54D11*
X83641Y-58073D02*
X83641Y-57483D01*
X83444Y-57904D01*
X83248Y-57483D01*
X83248Y-58073D01*
X82882Y-58073D02*
X82938Y-58045D01*
X82966Y-58017D01*
X82994Y-57961D01*
X82994Y-57792D01*
X82966Y-57736D01*
X82938Y-57708D01*
X82882Y-57679D01*
X82798Y-57679D01*
X82741Y-57708D01*
X82713Y-57736D01*
X82685Y-57792D01*
X82685Y-57961D01*
X82713Y-58017D01*
X82741Y-58045D01*
X82798Y-58073D01*
X82882Y-58073D01*
X82179Y-58073D02*
X82179Y-57483D01*
X82179Y-58045D02*
X82235Y-58073D01*
X82348Y-58073D01*
X82404Y-58045D01*
X82432Y-58017D01*
X82460Y-57961D01*
X82460Y-57792D01*
X82432Y-57736D01*
X82404Y-57708D01*
X82348Y-57679D01*
X82235Y-57679D01*
X82179Y-57708D01*
X81645Y-57679D02*
X81645Y-58073D01*
X81898Y-57679D02*
X81898Y-57989D01*
X81870Y-58045D01*
X81813Y-58073D01*
X81729Y-58073D01*
X81673Y-58045D01*
X81645Y-58017D01*
X81279Y-58073D02*
X81335Y-58045D01*
X81363Y-57989D01*
X81363Y-57483D01*
X80829Y-58045D02*
X80885Y-58073D01*
X80998Y-58073D01*
X81054Y-58045D01*
X81082Y-57989D01*
X81082Y-57764D01*
X81054Y-57708D01*
X80998Y-57679D01*
X80885Y-57679D01*
X80829Y-57708D01*
X80801Y-57764D01*
X80801Y-57820D01*
X81082Y-57876D01*
X80098Y-58073D02*
X80098Y-57483D01*
X79817Y-58073D02*
X79817Y-57483D01*
X79676Y-57483D01*
X79592Y-57511D01*
X79535Y-57567D01*
X79507Y-57623D01*
X79479Y-57736D01*
X79479Y-57820D01*
X79507Y-57933D01*
X79535Y-57989D01*
X79592Y-58045D01*
X79676Y-58073D01*
X79817Y-58073D01*
G54D12*
X83494Y-56773D02*
X83494Y-56511D01*
X83494Y-56548D02*
X83475Y-56529D01*
X83438Y-56511D01*
X83382Y-56511D01*
X83344Y-56529D01*
X83325Y-56567D01*
X83325Y-56773D01*
X83325Y-56567D02*
X83307Y-56529D01*
X83269Y-56511D01*
X83213Y-56511D01*
X83175Y-56529D01*
X83157Y-56567D01*
X83157Y-56773D01*
X82913Y-56773D02*
X82950Y-56754D01*
X82969Y-56736D01*
X82988Y-56698D01*
X82988Y-56586D01*
X82969Y-56548D01*
X82950Y-56529D01*
X82913Y-56511D01*
X82857Y-56511D01*
X82819Y-56529D01*
X82800Y-56548D01*
X82782Y-56586D01*
X82782Y-56698D01*
X82800Y-56736D01*
X82819Y-56754D01*
X82857Y-56773D01*
X82913Y-56773D01*
X82557Y-56773D02*
X82594Y-56754D01*
X82613Y-56736D01*
X82632Y-56698D01*
X82632Y-56586D01*
X82613Y-56548D01*
X82594Y-56529D01*
X82557Y-56511D01*
X82500Y-56511D01*
X82463Y-56529D01*
X82444Y-56548D01*
X82425Y-56586D01*
X82425Y-56698D01*
X82444Y-56736D01*
X82463Y-56754D01*
X82500Y-56773D01*
X82557Y-56773D01*
X82257Y-56511D02*
X82257Y-56773D01*
X82257Y-56548D02*
X82238Y-56529D01*
X82200Y-56511D01*
X82144Y-56511D01*
X82107Y-56529D01*
X82088Y-56567D01*
X82088Y-56773D01*
X81901Y-56511D02*
X81901Y-56904D01*
X81901Y-56529D02*
X81863Y-56511D01*
X81788Y-56511D01*
X81751Y-56529D01*
X81732Y-56548D01*
X81713Y-56586D01*
X81713Y-56698D01*
X81732Y-56736D01*
X81751Y-56754D01*
X81788Y-56773D01*
X81863Y-56773D01*
X81901Y-56754D01*
X81376Y-56511D02*
X81376Y-56773D01*
X81544Y-56511D02*
X81544Y-56717D01*
X81526Y-56754D01*
X81488Y-56773D01*
X81432Y-56773D01*
X81394Y-56754D01*
X81376Y-56736D01*
X81188Y-56511D02*
X81188Y-56773D01*
X81188Y-56548D02*
X81169Y-56529D01*
X81132Y-56511D01*
X81076Y-56511D01*
X81038Y-56529D01*
X81019Y-56567D01*
X81019Y-56773D01*
X80663Y-56754D02*
X80701Y-56773D01*
X80776Y-56773D01*
X80813Y-56754D01*
X80832Y-56736D01*
X80851Y-56698D01*
X80851Y-56586D01*
X80832Y-56548D01*
X80813Y-56529D01*
X80776Y-56511D01*
X80701Y-56511D01*
X80663Y-56529D01*
X80494Y-56773D02*
X80494Y-56379D01*
X80326Y-56773D02*
X80326Y-56567D01*
X80344Y-56529D01*
X80382Y-56511D01*
X80438Y-56511D01*
X80476Y-56529D01*
X80494Y-56548D01*
X80138Y-56736D02*
X80119Y-56754D01*
X80138Y-56773D01*
X80157Y-56754D01*
X80138Y-56736D01*
X80138Y-56773D01*
X79895Y-56773D02*
X79932Y-56754D01*
X79951Y-56736D01*
X79970Y-56698D01*
X79970Y-56586D01*
X79951Y-56548D01*
X79932Y-56529D01*
X79895Y-56511D01*
X79838Y-56511D01*
X79801Y-56529D01*
X79782Y-56548D01*
X79763Y-56586D01*
X79763Y-56698D01*
X79782Y-56736D01*
X79801Y-56754D01*
X79838Y-56773D01*
X79895Y-56773D01*
X79595Y-56773D02*
X79595Y-56511D01*
X79595Y-56586D02*
X79576Y-56548D01*
X79557Y-56529D01*
X79520Y-56511D01*
X79482Y-56511D01*
X79182Y-56511D02*
X79182Y-56829D01*
X79201Y-56867D01*
X79220Y-56886D01*
X79257Y-56904D01*
X79313Y-56904D01*
X79351Y-56886D01*
X79182Y-56754D02*
X79220Y-56773D01*
X79295Y-56773D01*
X79332Y-56754D01*
X79351Y-56736D01*
X79370Y-56698D01*
X79370Y-56586D01*
X79351Y-56548D01*
X79332Y-56529D01*
X79295Y-56511D01*
X79220Y-56511D01*
X79182Y-56529D01*
G54D13*
X83497Y-52494D02*
X83511Y-52508D01*
X83554Y-52523D01*
X83582Y-52523D01*
X83625Y-52508D01*
X83654Y-52480D01*
X83668Y-52451D01*
X83682Y-52394D01*
X83682Y-52351D01*
X83668Y-52294D01*
X83654Y-52265D01*
X83625Y-52237D01*
X83582Y-52223D01*
X83554Y-52223D01*
X83511Y-52237D01*
X83497Y-52251D01*
X83197Y-52494D02*
X83211Y-52508D01*
X83254Y-52523D01*
X83282Y-52523D01*
X83325Y-52508D01*
X83354Y-52480D01*
X83368Y-52451D01*
X83382Y-52394D01*
X83382Y-52351D01*
X83368Y-52294D01*
X83354Y-52265D01*
X83325Y-52237D01*
X83282Y-52223D01*
X83254Y-52223D01*
X83211Y-52237D01*
X83197Y-52251D01*
X83068Y-52408D02*
X82840Y-52408D01*
X82597Y-52365D02*
X82554Y-52380D01*
X82540Y-52394D01*
X82525Y-52423D01*
X82525Y-52465D01*
X82540Y-52494D01*
X82554Y-52508D01*
X82582Y-52523D01*
X82697Y-52523D01*
X82697Y-52223D01*
X82597Y-52223D01*
X82568Y-52237D01*
X82554Y-52251D01*
X82540Y-52280D01*
X82540Y-52308D01*
X82554Y-52337D01*
X82568Y-52351D01*
X82597Y-52365D01*
X82697Y-52365D01*
X82340Y-52380D02*
X82340Y-52523D01*
X82440Y-52223D02*
X82340Y-52380D01*
X82240Y-52223D01*
X82140Y-52408D02*
X81911Y-52408D01*
X81782Y-52508D02*
X81740Y-52523D01*
X81668Y-52523D01*
X81640Y-52508D01*
X81625Y-52494D01*
X81611Y-52465D01*
X81611Y-52437D01*
X81625Y-52408D01*
X81640Y-52394D01*
X81668Y-52380D01*
X81725Y-52365D01*
X81754Y-52351D01*
X81768Y-52337D01*
X81782Y-52308D01*
X81782Y-52280D01*
X81768Y-52251D01*
X81754Y-52237D01*
X81725Y-52223D01*
X81654Y-52223D01*
X81611Y-52237D01*
X81497Y-52437D02*
X81354Y-52437D01*
X81525Y-52523D02*
X81425Y-52223D01*
X81325Y-52523D01*
X81025Y-52223D02*
X80840Y-52223D01*
X80940Y-52337D01*
X80897Y-52337D01*
X80868Y-52351D01*
X80854Y-52365D01*
X80840Y-52394D01*
X80840Y-52465D01*
X80854Y-52494D01*
X80868Y-52508D01*
X80897Y-52523D01*
X80982Y-52523D01*
X81011Y-52508D01*
X81025Y-52494D01*
X80711Y-52494D02*
X80697Y-52508D01*
X80711Y-52523D01*
X80725Y-52508D01*
X80711Y-52494D01*
X80711Y-52523D01*
X80511Y-52223D02*
X80482Y-52223D01*
X80454Y-52237D01*
X80440Y-52251D01*
X80425Y-52280D01*
X80411Y-52337D01*
X80411Y-52408D01*
X80425Y-52465D01*
X80440Y-52494D01*
X80454Y-52508D01*
X80482Y-52523D01*
X80511Y-52523D01*
X80540Y-52508D01*
X80554Y-52494D01*
X80568Y-52465D01*
X80582Y-52408D01*
X80582Y-52337D01*
X80568Y-52280D01*
X80554Y-52251D01*
X80540Y-52237D01*
X80511Y-52223D01*
G54D14*
G36*
X86000Y-58422D02*
X85000Y-58422D01*
X84000Y-58422D01*
X84000Y-57755D01*
X84000Y-57089D01*
X85000Y-57089D01*
X86000Y-57089D01*
X86000Y-57755D01*
X86000Y-58422D01*
X86000Y-58422D01*
X86000Y-58422D01*
G37*
G36*
X86120Y-52466D02*
X86117Y-52518D01*
X86106Y-52606D01*
X86080Y-52648D01*
X86022Y-52664D01*
X85997Y-52667D01*
X85910Y-52690D01*
X85853Y-52751D01*
X85834Y-52788D01*
X85802Y-52865D01*
X85804Y-52920D01*
X85842Y-52986D01*
X85856Y-53005D01*
X85931Y-53111D01*
X85839Y-53207D01*
X85747Y-53304D01*
X85650Y-53235D01*
X85568Y-53193D01*
X85496Y-53181D01*
X85490Y-53182D01*
X85451Y-53180D01*
X85414Y-53143D01*
X85372Y-53059D01*
X85346Y-52995D01*
X85264Y-52790D01*
X85344Y-52696D01*
X85411Y-52580D01*
X85412Y-52469D01*
X85346Y-52359D01*
X85326Y-52337D01*
X85214Y-52258D01*
X85103Y-52246D01*
X84996Y-52299D01*
X84972Y-52321D01*
X84903Y-52430D01*
X84891Y-52551D01*
X84935Y-52663D01*
X84969Y-52703D01*
X85049Y-52777D01*
X84964Y-52991D01*
X84916Y-53104D01*
X84880Y-53167D01*
X84845Y-53190D01*
X84808Y-53187D01*
X84723Y-53196D01*
X84652Y-53236D01*
X84566Y-53303D01*
X84474Y-53207D01*
X84382Y-53111D01*
X84450Y-53000D01*
X84492Y-52920D01*
X84498Y-52857D01*
X84473Y-52783D01*
X84425Y-52705D01*
X84353Y-52672D01*
X84317Y-52667D01*
X84247Y-52655D01*
X84213Y-52623D01*
X84199Y-52552D01*
X84196Y-52515D01*
X84193Y-52426D01*
X84210Y-52382D01*
X84266Y-52362D01*
X84319Y-52353D01*
X84413Y-52329D01*
X84464Y-52283D01*
X84488Y-52232D01*
X84505Y-52149D01*
X84481Y-52077D01*
X84456Y-52039D01*
X84404Y-51956D01*
X84398Y-51898D01*
X84438Y-51841D01*
X84470Y-51809D01*
X84550Y-51734D01*
X84682Y-51810D01*
X84766Y-51855D01*
X84819Y-51868D01*
X84868Y-51850D01*
X84902Y-51829D01*
X84964Y-51769D01*
X84990Y-51708D01*
X85004Y-51606D01*
X85056Y-51554D01*
X85156Y-51540D01*
X85157Y-51540D01*
X85240Y-51544D01*
X85280Y-51571D01*
X85301Y-51640D01*
X85306Y-51670D01*
X85334Y-51767D01*
X85388Y-51822D01*
X85424Y-51840D01*
X85497Y-51861D01*
X85559Y-51847D01*
X85624Y-51806D01*
X85728Y-51732D01*
X85825Y-51824D01*
X85922Y-51917D01*
X85852Y-52030D01*
X85809Y-52113D01*
X85803Y-52178D01*
X85823Y-52238D01*
X85867Y-52308D01*
X85942Y-52346D01*
X85995Y-52357D01*
X86078Y-52374D01*
X86114Y-52403D01*
X86120Y-52466D01*
X86120Y-52466D01*
X86120Y-52466D01*
G37*
G36*
X85679Y-55288D02*
X85665Y-55288D01*
X85638Y-55284D01*
X85608Y-55310D01*
X85568Y-55375D01*
X85515Y-55488D01*
X85460Y-55611D01*
X85407Y-55725D01*
X85363Y-55807D01*
X85333Y-55845D01*
X85326Y-55845D01*
X85305Y-55804D01*
X85294Y-55779D01*
X85294Y-55036D01*
X85270Y-54980D01*
X85229Y-54969D01*
X85160Y-54989D01*
X85134Y-55036D01*
X85144Y-55069D01*
X85194Y-55103D01*
X85254Y-55095D01*
X85292Y-55054D01*
X85294Y-55036D01*
X85294Y-55779D01*
X85266Y-55717D01*
X85217Y-55599D01*
X85196Y-55544D01*
X85136Y-55403D01*
X85089Y-55317D01*
X85049Y-55276D01*
X85024Y-55269D01*
X84997Y-55274D01*
X84979Y-55296D01*
X84968Y-55345D01*
X84963Y-55434D01*
X84961Y-55572D01*
X84961Y-55669D01*
X84962Y-55838D01*
X84965Y-55951D01*
X84972Y-56020D01*
X84986Y-56055D01*
X85008Y-56068D01*
X85026Y-56069D01*
X85061Y-56061D01*
X85082Y-56028D01*
X85094Y-55956D01*
X85101Y-55846D01*
X85111Y-55622D01*
X85199Y-55837D01*
X85249Y-55946D01*
X85298Y-56027D01*
X85334Y-56062D01*
X85335Y-56062D01*
X85378Y-56037D01*
X85435Y-55950D01*
X85487Y-55846D01*
X85591Y-55619D01*
X85592Y-55841D01*
X85600Y-55983D01*
X85620Y-56062D01*
X85636Y-56078D01*
X85652Y-56114D01*
X85629Y-56186D01*
X85574Y-56284D01*
X85493Y-56394D01*
X85394Y-56504D01*
X85234Y-56645D01*
X85069Y-56740D01*
X84919Y-56786D01*
X84919Y-55744D01*
X84900Y-55685D01*
X84820Y-55577D01*
X84713Y-55522D01*
X84594Y-55525D01*
X84478Y-55587D01*
X84457Y-55606D01*
X84388Y-55675D01*
X84352Y-55636D01*
X84352Y-54949D01*
X84330Y-54879D01*
X84275Y-54828D01*
X84203Y-54811D01*
X84143Y-54837D01*
X84106Y-54899D01*
X84094Y-54980D01*
X84113Y-55044D01*
X84116Y-55047D01*
X84177Y-55069D01*
X84258Y-55060D01*
X84323Y-55024D01*
X84326Y-55021D01*
X84352Y-54949D01*
X84352Y-55636D01*
X84324Y-55606D01*
X84217Y-55532D01*
X84101Y-55518D01*
X83992Y-55559D01*
X83905Y-55654D01*
X83888Y-55685D01*
X83863Y-55804D01*
X83891Y-55911D01*
X83958Y-55996D01*
X84051Y-56050D01*
X84158Y-56063D01*
X84265Y-56026D01*
X84312Y-55987D01*
X84394Y-55906D01*
X84476Y-55987D01*
X84578Y-56052D01*
X84687Y-56062D01*
X84788Y-56026D01*
X84869Y-55955D01*
X84918Y-55858D01*
X84919Y-55744D01*
X84919Y-56786D01*
X84883Y-56798D01*
X84820Y-56805D01*
X84820Y-56549D01*
X84789Y-56489D01*
X84718Y-56455D01*
X84691Y-56453D01*
X84624Y-56472D01*
X84600Y-56532D01*
X84613Y-56614D01*
X84665Y-56660D01*
X84736Y-56660D01*
X84796Y-56616D01*
X84820Y-56549D01*
X84820Y-56805D01*
X84657Y-56824D01*
X84594Y-56827D01*
X84416Y-56828D01*
X84286Y-56818D01*
X84183Y-56795D01*
X84136Y-56778D01*
X84086Y-56752D01*
X84086Y-56349D01*
X84056Y-56288D01*
X83985Y-56255D01*
X83958Y-56253D01*
X83888Y-56279D01*
X83861Y-56347D01*
X83874Y-56421D01*
X83919Y-56462D01*
X83989Y-56463D01*
X84056Y-56424D01*
X84063Y-56416D01*
X84086Y-56349D01*
X84086Y-56752D01*
X83957Y-56685D01*
X83786Y-56564D01*
X83647Y-56433D01*
X83617Y-56396D01*
X83553Y-56302D01*
X83499Y-56203D01*
X83462Y-56115D01*
X83448Y-56054D01*
X83460Y-56036D01*
X83479Y-56005D01*
X83491Y-55925D01*
X83494Y-55834D01*
X83495Y-55722D01*
X83504Y-55663D01*
X83527Y-55640D01*
X83571Y-55640D01*
X83586Y-55642D01*
X83637Y-55653D01*
X83667Y-55680D01*
X83683Y-55742D01*
X83694Y-55852D01*
X83709Y-55970D01*
X83730Y-56035D01*
X83763Y-56062D01*
X83769Y-56063D01*
X83804Y-56060D01*
X83822Y-56022D01*
X83827Y-55936D01*
X83828Y-55909D01*
X83832Y-55787D01*
X83843Y-55673D01*
X83848Y-55640D01*
X83857Y-55568D01*
X83836Y-55540D01*
X83798Y-55536D01*
X83742Y-55550D01*
X83728Y-55570D01*
X83704Y-55585D01*
X83654Y-55565D01*
X83563Y-55536D01*
X83487Y-55529D01*
X83426Y-55521D01*
X83398Y-55485D01*
X83401Y-55414D01*
X83436Y-55296D01*
X83463Y-55222D01*
X83572Y-55015D01*
X83731Y-54825D01*
X83925Y-54670D01*
X84016Y-54618D01*
X84140Y-54562D01*
X84259Y-54529D01*
X84401Y-54512D01*
X84483Y-54508D01*
X84782Y-54522D01*
X85045Y-54593D01*
X85273Y-54719D01*
X85463Y-54900D01*
X85525Y-54982D01*
X85588Y-55081D01*
X85639Y-55175D01*
X85671Y-55248D01*
X85679Y-55288D01*
X85679Y-55288D01*
X85679Y-55288D01*
G37*
G36*
X83328Y-56236D02*
X83244Y-56236D01*
X83184Y-56225D01*
X83163Y-56179D01*
X83161Y-56137D01*
X83156Y-56069D01*
X83150Y-56065D01*
X83150Y-55777D01*
X83125Y-55700D01*
X83065Y-55654D01*
X82981Y-55656D01*
X82977Y-55657D01*
X82926Y-55707D01*
X82904Y-55788D01*
X82916Y-55867D01*
X82928Y-55886D01*
X83000Y-55931D01*
X83077Y-55920D01*
X83128Y-55868D01*
X83150Y-55777D01*
X83150Y-56065D01*
X83130Y-56055D01*
X83085Y-56072D01*
X82981Y-56086D01*
X82874Y-56052D01*
X82792Y-55978D01*
X82789Y-55973D01*
X82756Y-55928D01*
X82733Y-55940D01*
X82712Y-55980D01*
X82685Y-56018D01*
X82640Y-56041D01*
X82561Y-56053D01*
X82436Y-56058D01*
X82197Y-56064D01*
X82185Y-55842D01*
X82174Y-55619D01*
X82167Y-55844D01*
X82162Y-55963D01*
X82153Y-56031D01*
X82132Y-56061D01*
X82094Y-56069D01*
X82078Y-56069D01*
X82029Y-56064D01*
X82005Y-56039D01*
X81995Y-55976D01*
X81994Y-55890D01*
X81983Y-55752D01*
X81950Y-55674D01*
X81944Y-55669D01*
X81882Y-55644D01*
X81833Y-55680D01*
X81803Y-55771D01*
X81794Y-55890D01*
X81792Y-55993D01*
X81780Y-56047D01*
X81751Y-56066D01*
X81707Y-56069D01*
X81646Y-56061D01*
X81634Y-56023D01*
X81642Y-55982D01*
X81664Y-55895D01*
X81587Y-55982D01*
X81536Y-56032D01*
X81490Y-56057D01*
X81490Y-55819D01*
X81483Y-55729D01*
X81445Y-55670D01*
X81373Y-55645D01*
X81311Y-55649D01*
X81252Y-55677D01*
X81230Y-55734D01*
X81228Y-55784D01*
X81239Y-55865D01*
X81266Y-55912D01*
X81269Y-55914D01*
X81374Y-55931D01*
X81454Y-55896D01*
X81490Y-55819D01*
X81490Y-56057D01*
X81481Y-56062D01*
X81404Y-56075D01*
X81286Y-56076D01*
X81219Y-56074D01*
X81061Y-56069D01*
X81061Y-55890D01*
X81050Y-55752D01*
X81016Y-55674D01*
X81011Y-55669D01*
X80948Y-55644D01*
X80900Y-55680D01*
X80870Y-55771D01*
X80861Y-55890D01*
X80858Y-55994D01*
X80845Y-56048D01*
X80816Y-56068D01*
X80794Y-56069D01*
X80760Y-56063D01*
X80740Y-56036D01*
X80730Y-55973D01*
X80728Y-55862D01*
X80728Y-55823D01*
X80734Y-55668D01*
X80757Y-55570D01*
X80803Y-55519D01*
X80879Y-55506D01*
X80944Y-55513D01*
X81061Y-55532D01*
X81061Y-55400D01*
X81065Y-55316D01*
X81087Y-55278D01*
X81141Y-55269D01*
X81159Y-55269D01*
X81223Y-55274D01*
X81246Y-55302D01*
X81240Y-55374D01*
X81238Y-55386D01*
X81219Y-55503D01*
X81372Y-55503D01*
X81479Y-55511D01*
X81547Y-55542D01*
X81584Y-55581D01*
X81643Y-55660D01*
X81678Y-55589D01*
X81740Y-55530D01*
X81836Y-55507D01*
X81939Y-55525D01*
X81959Y-55535D01*
X82011Y-55554D01*
X82027Y-55545D01*
X82057Y-55533D01*
X82134Y-55528D01*
X82194Y-55531D01*
X82361Y-55542D01*
X82361Y-55702D01*
X82376Y-55829D01*
X82417Y-55908D01*
X82481Y-55931D01*
X82510Y-55924D01*
X82542Y-55889D01*
X82558Y-55807D01*
X82561Y-55720D01*
X82563Y-55615D01*
X82574Y-55560D01*
X82602Y-55539D01*
X82644Y-55536D01*
X82706Y-55548D01*
X82727Y-55599D01*
X82729Y-55628D01*
X82730Y-55719D01*
X82779Y-55630D01*
X82820Y-55569D01*
X82874Y-55533D01*
X82956Y-55514D01*
X83084Y-55508D01*
X83136Y-55508D01*
X83328Y-55508D01*
X83328Y-55872D01*
X83328Y-56236D01*
X83328Y-56236D01*
X83328Y-56236D01*
G37*
G36*
X83428Y-55953D02*
X83411Y-55969D01*
X83394Y-55953D01*
X83411Y-55936D01*
X83428Y-55953D01*
X83428Y-55953D01*
X83428Y-55953D01*
G37*
G36*
X85728Y-55919D02*
X85711Y-55936D01*
X85694Y-55919D01*
X85711Y-55903D01*
X85728Y-55919D01*
X85728Y-55919D01*
X85728Y-55919D01*
G37*
G36*
X83387Y-55662D02*
X83383Y-55678D01*
X83371Y-55682D01*
X83366Y-55636D01*
X83371Y-55589D01*
X83383Y-55594D01*
X83387Y-55662D01*
X83387Y-55662D01*
X83387Y-55662D01*
G37*
G36*
X85728Y-55419D02*
X85711Y-55436D01*
X85694Y-55419D01*
X85711Y-55403D01*
X85728Y-55419D01*
X85728Y-55419D01*
X85728Y-55419D01*
G37*
G36*
X84291Y-55784D02*
X84272Y-55850D01*
X84228Y-55903D01*
X84165Y-55956D01*
X84113Y-55962D01*
X84053Y-55933D01*
X84009Y-55874D01*
X83995Y-55787D01*
X84015Y-55703D01*
X84034Y-55676D01*
X84109Y-55639D01*
X84194Y-55647D01*
X84257Y-55695D01*
X84260Y-55700D01*
X84291Y-55784D01*
X84291Y-55784D01*
X84291Y-55784D01*
G37*
G36*
X84790Y-55750D02*
X84789Y-55840D01*
X84755Y-55915D01*
X84730Y-55935D01*
X84666Y-55964D01*
X84622Y-55957D01*
X84566Y-55907D01*
X84561Y-55903D01*
X84505Y-55830D01*
X84502Y-55762D01*
X84529Y-55700D01*
X84589Y-55649D01*
X84673Y-55638D01*
X84750Y-55672D01*
X84754Y-55676D01*
X84790Y-55750D01*
X84790Y-55750D01*
X84790Y-55750D01*
G37*
M02*
