G04 (created by PCBNEW (2013-may-18)-stable) date Sun 16 Aug 2015 06:52:27 PM CST*
%MOIN*%
G04 Gerber Fmt 3.4, Leading zero omitted, Abs format*
%FSLAX34Y34*%
G01*
G70*
G90*
G04 APERTURE LIST*
%ADD10C,0.00590551*%
%ADD11C,0.00393701*%
G04 APERTURE END LIST*
G54D10*
G54D11*
X78740Y-54291D02*
X78740Y-51496D01*
X79566Y-55118D02*
G75*
G03X78740Y-54291I-826J0D01*
G74*
G01*
X78740Y-55944D02*
G75*
G03X79566Y-55118I0J826D01*
G74*
G01*
X78740Y-58740D02*
X78740Y-55944D01*
X78740Y-58740D02*
G75*
G03X79055Y-59055I314J0D01*
G74*
G01*
X81850Y-59055D02*
X79055Y-59055D01*
X81850Y-59055D02*
G75*
G03X82677Y-59881I826J0D01*
G74*
G01*
X82677Y-59881D02*
G75*
G03X83503Y-59055I0J826D01*
G74*
G01*
X86299Y-59055D02*
X83503Y-59055D01*
X86299Y-59055D02*
G75*
G03X86614Y-58740I0J314D01*
G74*
G01*
X86614Y-55944D02*
X86614Y-58740D01*
X85787Y-55118D02*
G75*
G03X86614Y-55944I826J0D01*
G74*
G01*
X86614Y-54291D02*
G75*
G03X85787Y-55118I0J-826D01*
G74*
G01*
X86614Y-51496D02*
X86614Y-54291D01*
X86614Y-51496D02*
G75*
G03X86299Y-51181I-314J0D01*
G74*
G01*
X83503Y-51181D02*
X86299Y-51181D01*
X83503Y-51181D02*
G75*
G03X82677Y-50354I-826J0D01*
G74*
G01*
X82677Y-50354D02*
G75*
G03X81850Y-51181I0J-826D01*
G74*
G01*
X79055Y-51181D02*
X81850Y-51181D01*
X79055Y-51181D02*
G75*
G03X78740Y-51496I0J-314D01*
G74*
G01*
M02*
