G04 (created by PCBNEW (2013-may-18)-stable) date Wed 10 Dec 2014 10:55:01 AM CST*
%MOIN*%
G04 Gerber Fmt 3.4, Leading zero omitted, Abs format*
%FSLAX34Y34*%
G01*
G70*
G90*
G04 APERTURE LIST*
%ADD10C,0.00590551*%
%ADD11R,0.06X0.06*%
%ADD12C,0.06*%
%ADD13C,0.177165*%
%ADD14R,0.05X0.025*%
%ADD15R,0.0511811X0.0511811*%
%ADD16C,0.0511811*%
%ADD17C,0.035*%
%ADD18C,0.01*%
G04 APERTURE END LIST*
G54D10*
G54D11*
X82456Y-60031D03*
G54D12*
X82456Y-59031D03*
X82456Y-58031D03*
X82456Y-57031D03*
G54D13*
X77728Y-59968D03*
G54D14*
X78655Y-56907D03*
X78655Y-57407D03*
X78655Y-57907D03*
X78655Y-58407D03*
X80855Y-58407D03*
X80855Y-57907D03*
X80855Y-57407D03*
X80855Y-56907D03*
G54D15*
X82342Y-54586D03*
G54D16*
X82342Y-55374D03*
X81555Y-54586D03*
X81555Y-55374D03*
X80767Y-54586D03*
X80767Y-55374D03*
X79980Y-54586D03*
X79980Y-55374D03*
X79192Y-54586D03*
X79192Y-55374D03*
X78405Y-54586D03*
X78405Y-55374D03*
X77618Y-54586D03*
X77618Y-55374D03*
G54D17*
X80141Y-56921D03*
G54D18*
X82456Y-57031D02*
X82437Y-57031D01*
X81561Y-57907D02*
X80855Y-57907D01*
X82437Y-57031D02*
X81561Y-57907D01*
X82342Y-55374D02*
X82342Y-56917D01*
X82342Y-56917D02*
X82456Y-57031D01*
X82456Y-60031D02*
X82456Y-60008D01*
X82456Y-60008D02*
X80855Y-58407D01*
X80855Y-56907D02*
X80155Y-56907D01*
X80155Y-56907D02*
X80141Y-56921D01*
G54D10*
G36*
X83332Y-60466D02*
X83288Y-60687D01*
X83176Y-60855D01*
X83011Y-60965D01*
X83011Y-60965D01*
X83011Y-58113D01*
X83000Y-57894D01*
X82937Y-57743D01*
X82842Y-57716D01*
X82527Y-58031D01*
X82842Y-58346D01*
X82937Y-58319D01*
X83011Y-58113D01*
X83011Y-60965D01*
X83006Y-60966D01*
X83006Y-58922D01*
X82923Y-58720D01*
X82768Y-58565D01*
X82693Y-58534D01*
X82744Y-58512D01*
X82771Y-58417D01*
X82456Y-58102D01*
X82141Y-58417D01*
X82168Y-58512D01*
X82224Y-58532D01*
X82145Y-58564D01*
X81990Y-58719D01*
X81906Y-58921D01*
X81906Y-59034D01*
X81355Y-58483D01*
X81355Y-58482D01*
X81355Y-58232D01*
X81345Y-58207D01*
X81561Y-58207D01*
X81561Y-58207D01*
X81675Y-58184D01*
X81675Y-58184D01*
X81773Y-58119D01*
X81903Y-57988D01*
X81912Y-58168D01*
X81975Y-58319D01*
X82070Y-58346D01*
X82385Y-58031D01*
X82380Y-58025D01*
X82451Y-57955D01*
X82456Y-57960D01*
X82771Y-57645D01*
X82744Y-57550D01*
X82689Y-57530D01*
X82767Y-57498D01*
X82922Y-57343D01*
X83006Y-57141D01*
X83006Y-56922D01*
X82923Y-56720D01*
X82768Y-56565D01*
X82642Y-56513D01*
X82642Y-55789D01*
X82771Y-55660D01*
X82848Y-55475D01*
X82848Y-55273D01*
X82771Y-55087D01*
X82738Y-55054D01*
X82739Y-55054D01*
X82810Y-54984D01*
X82848Y-54892D01*
X82848Y-54793D01*
X82848Y-54281D01*
X82810Y-54189D01*
X82740Y-54118D01*
X82648Y-54080D01*
X82548Y-54080D01*
X82037Y-54080D01*
X81945Y-54118D01*
X81874Y-54188D01*
X81874Y-54190D01*
X81842Y-54157D01*
X81656Y-54080D01*
X81454Y-54080D01*
X81268Y-54157D01*
X81161Y-54264D01*
X81054Y-54157D01*
X80868Y-54080D01*
X80667Y-54080D01*
X80481Y-54157D01*
X80373Y-54264D01*
X80267Y-54157D01*
X80081Y-54080D01*
X79880Y-54080D01*
X79694Y-54157D01*
X79586Y-54264D01*
X79479Y-54157D01*
X79293Y-54080D01*
X79092Y-54080D01*
X78906Y-54157D01*
X78764Y-54299D01*
X78762Y-54304D01*
X78759Y-54303D01*
X78688Y-54374D01*
X78688Y-54232D01*
X78666Y-54141D01*
X78476Y-54075D01*
X78275Y-54087D01*
X78144Y-54141D01*
X78122Y-54232D01*
X78405Y-54515D01*
X78688Y-54232D01*
X78688Y-54374D01*
X78476Y-54586D01*
X78759Y-54869D01*
X78762Y-54869D01*
X78763Y-54872D01*
X78871Y-54980D01*
X78799Y-55052D01*
X78692Y-54945D01*
X78688Y-54943D01*
X78688Y-54940D01*
X78405Y-54657D01*
X78122Y-54940D01*
X78122Y-54943D01*
X78119Y-54944D01*
X78011Y-55052D01*
X77939Y-54980D01*
X78046Y-54873D01*
X78048Y-54869D01*
X78051Y-54869D01*
X78334Y-54586D01*
X78051Y-54303D01*
X78048Y-54304D01*
X78047Y-54300D01*
X77905Y-54157D01*
X77719Y-54080D01*
X77517Y-54080D01*
X77331Y-54157D01*
X77189Y-54299D01*
X77112Y-54485D01*
X77112Y-54686D01*
X77188Y-54872D01*
X77296Y-54980D01*
X77189Y-55087D01*
X77112Y-55272D01*
X77112Y-55474D01*
X77188Y-55660D01*
X77331Y-55802D01*
X77517Y-55879D01*
X77718Y-55880D01*
X77904Y-55803D01*
X78011Y-55695D01*
X78118Y-55802D01*
X78304Y-55879D01*
X78505Y-55880D01*
X78691Y-55803D01*
X78799Y-55695D01*
X78905Y-55802D01*
X79091Y-55879D01*
X79293Y-55880D01*
X79479Y-55803D01*
X79586Y-55695D01*
X79693Y-55802D01*
X79879Y-55879D01*
X80080Y-55880D01*
X80266Y-55803D01*
X80374Y-55695D01*
X80480Y-55802D01*
X80666Y-55879D01*
X80867Y-55880D01*
X81053Y-55803D01*
X81161Y-55695D01*
X81268Y-55802D01*
X81454Y-55879D01*
X81655Y-55880D01*
X81841Y-55803D01*
X81948Y-55695D01*
X82042Y-55789D01*
X82042Y-56667D01*
X81990Y-56719D01*
X81906Y-56921D01*
X81906Y-57137D01*
X81436Y-57607D01*
X81345Y-57607D01*
X81355Y-57582D01*
X81355Y-57482D01*
X81355Y-57232D01*
X81324Y-57157D01*
X81355Y-57082D01*
X81355Y-56982D01*
X81355Y-56732D01*
X81317Y-56641D01*
X81247Y-56570D01*
X81155Y-56532D01*
X81056Y-56532D01*
X80556Y-56532D01*
X80464Y-56570D01*
X80428Y-56606D01*
X80382Y-56561D01*
X80226Y-56496D01*
X80057Y-56496D01*
X79901Y-56560D01*
X79781Y-56680D01*
X79716Y-56836D01*
X79716Y-57005D01*
X79781Y-57161D01*
X79900Y-57281D01*
X80056Y-57346D01*
X80225Y-57346D01*
X80355Y-57292D01*
X80355Y-57331D01*
X80355Y-57581D01*
X80387Y-57657D01*
X80355Y-57732D01*
X80355Y-57831D01*
X80355Y-58081D01*
X80387Y-58157D01*
X80355Y-58232D01*
X80355Y-58331D01*
X80355Y-58581D01*
X80393Y-58673D01*
X80464Y-58744D01*
X80555Y-58782D01*
X80655Y-58782D01*
X80806Y-58782D01*
X81906Y-59882D01*
X81906Y-60381D01*
X81944Y-60472D01*
X82014Y-60543D01*
X82106Y-60581D01*
X82206Y-60581D01*
X82806Y-60581D01*
X82898Y-60543D01*
X82968Y-60473D01*
X83006Y-60381D01*
X83006Y-60281D01*
X83006Y-59681D01*
X82968Y-59590D01*
X82898Y-59519D01*
X82806Y-59481D01*
X82784Y-59481D01*
X82922Y-59343D01*
X83006Y-59141D01*
X83006Y-58922D01*
X83006Y-60966D01*
X82788Y-61009D01*
X79155Y-61009D01*
X79155Y-58581D01*
X79155Y-58232D01*
X79124Y-58157D01*
X79155Y-58082D01*
X79155Y-57982D01*
X79155Y-57732D01*
X79124Y-57657D01*
X79155Y-57582D01*
X79155Y-57482D01*
X79155Y-57232D01*
X79124Y-57157D01*
X79155Y-57082D01*
X79155Y-56982D01*
X79155Y-56732D01*
X79117Y-56641D01*
X79047Y-56570D01*
X78955Y-56532D01*
X78856Y-56532D01*
X78356Y-56532D01*
X78264Y-56570D01*
X78194Y-56640D01*
X78155Y-56732D01*
X78155Y-56831D01*
X78155Y-57081D01*
X78187Y-57157D01*
X78155Y-57232D01*
X78155Y-57331D01*
X78155Y-57581D01*
X78187Y-57657D01*
X78155Y-57732D01*
X78155Y-57831D01*
X78155Y-58081D01*
X78187Y-58157D01*
X78155Y-58232D01*
X78155Y-58294D01*
X78218Y-58357D01*
X78605Y-58357D01*
X78605Y-58349D01*
X78705Y-58349D01*
X78705Y-58357D01*
X79093Y-58357D01*
X79155Y-58294D01*
X79155Y-58232D01*
X79155Y-58581D01*
X79155Y-58519D01*
X79093Y-58457D01*
X78705Y-58457D01*
X78705Y-58719D01*
X78768Y-58782D01*
X78856Y-58782D01*
X78955Y-58782D01*
X79047Y-58744D01*
X79117Y-58673D01*
X79155Y-58581D01*
X79155Y-61009D01*
X78182Y-61009D01*
X78370Y-60931D01*
X78690Y-60612D01*
X78863Y-60195D01*
X78864Y-59743D01*
X78691Y-59325D01*
X78605Y-59239D01*
X78605Y-58719D01*
X78605Y-58457D01*
X78218Y-58457D01*
X78155Y-58519D01*
X78155Y-58581D01*
X78193Y-58673D01*
X78264Y-58744D01*
X78355Y-58782D01*
X78455Y-58782D01*
X78543Y-58782D01*
X78605Y-58719D01*
X78605Y-59239D01*
X78372Y-59006D01*
X77955Y-58832D01*
X77503Y-58832D01*
X77085Y-59005D01*
X76766Y-59324D01*
X76627Y-59656D01*
X76627Y-53550D01*
X76642Y-53478D01*
X76667Y-53439D01*
X76706Y-53413D01*
X76779Y-53399D01*
X77145Y-53399D01*
X82814Y-53399D01*
X83182Y-53399D01*
X83254Y-53413D01*
X83292Y-53439D01*
X83318Y-53478D01*
X83332Y-53550D01*
X83332Y-60466D01*
X83332Y-60466D01*
G37*
G54D18*
X83332Y-60466D02*
X83288Y-60687D01*
X83176Y-60855D01*
X83011Y-60965D01*
X83011Y-60965D01*
X83011Y-58113D01*
X83000Y-57894D01*
X82937Y-57743D01*
X82842Y-57716D01*
X82527Y-58031D01*
X82842Y-58346D01*
X82937Y-58319D01*
X83011Y-58113D01*
X83011Y-60965D01*
X83006Y-60966D01*
X83006Y-58922D01*
X82923Y-58720D01*
X82768Y-58565D01*
X82693Y-58534D01*
X82744Y-58512D01*
X82771Y-58417D01*
X82456Y-58102D01*
X82141Y-58417D01*
X82168Y-58512D01*
X82224Y-58532D01*
X82145Y-58564D01*
X81990Y-58719D01*
X81906Y-58921D01*
X81906Y-59034D01*
X81355Y-58483D01*
X81355Y-58482D01*
X81355Y-58232D01*
X81345Y-58207D01*
X81561Y-58207D01*
X81561Y-58207D01*
X81675Y-58184D01*
X81675Y-58184D01*
X81773Y-58119D01*
X81903Y-57988D01*
X81912Y-58168D01*
X81975Y-58319D01*
X82070Y-58346D01*
X82385Y-58031D01*
X82380Y-58025D01*
X82451Y-57955D01*
X82456Y-57960D01*
X82771Y-57645D01*
X82744Y-57550D01*
X82689Y-57530D01*
X82767Y-57498D01*
X82922Y-57343D01*
X83006Y-57141D01*
X83006Y-56922D01*
X82923Y-56720D01*
X82768Y-56565D01*
X82642Y-56513D01*
X82642Y-55789D01*
X82771Y-55660D01*
X82848Y-55475D01*
X82848Y-55273D01*
X82771Y-55087D01*
X82738Y-55054D01*
X82739Y-55054D01*
X82810Y-54984D01*
X82848Y-54892D01*
X82848Y-54793D01*
X82848Y-54281D01*
X82810Y-54189D01*
X82740Y-54118D01*
X82648Y-54080D01*
X82548Y-54080D01*
X82037Y-54080D01*
X81945Y-54118D01*
X81874Y-54188D01*
X81874Y-54190D01*
X81842Y-54157D01*
X81656Y-54080D01*
X81454Y-54080D01*
X81268Y-54157D01*
X81161Y-54264D01*
X81054Y-54157D01*
X80868Y-54080D01*
X80667Y-54080D01*
X80481Y-54157D01*
X80373Y-54264D01*
X80267Y-54157D01*
X80081Y-54080D01*
X79880Y-54080D01*
X79694Y-54157D01*
X79586Y-54264D01*
X79479Y-54157D01*
X79293Y-54080D01*
X79092Y-54080D01*
X78906Y-54157D01*
X78764Y-54299D01*
X78762Y-54304D01*
X78759Y-54303D01*
X78688Y-54374D01*
X78688Y-54232D01*
X78666Y-54141D01*
X78476Y-54075D01*
X78275Y-54087D01*
X78144Y-54141D01*
X78122Y-54232D01*
X78405Y-54515D01*
X78688Y-54232D01*
X78688Y-54374D01*
X78476Y-54586D01*
X78759Y-54869D01*
X78762Y-54869D01*
X78763Y-54872D01*
X78871Y-54980D01*
X78799Y-55052D01*
X78692Y-54945D01*
X78688Y-54943D01*
X78688Y-54940D01*
X78405Y-54657D01*
X78122Y-54940D01*
X78122Y-54943D01*
X78119Y-54944D01*
X78011Y-55052D01*
X77939Y-54980D01*
X78046Y-54873D01*
X78048Y-54869D01*
X78051Y-54869D01*
X78334Y-54586D01*
X78051Y-54303D01*
X78048Y-54304D01*
X78047Y-54300D01*
X77905Y-54157D01*
X77719Y-54080D01*
X77517Y-54080D01*
X77331Y-54157D01*
X77189Y-54299D01*
X77112Y-54485D01*
X77112Y-54686D01*
X77188Y-54872D01*
X77296Y-54980D01*
X77189Y-55087D01*
X77112Y-55272D01*
X77112Y-55474D01*
X77188Y-55660D01*
X77331Y-55802D01*
X77517Y-55879D01*
X77718Y-55880D01*
X77904Y-55803D01*
X78011Y-55695D01*
X78118Y-55802D01*
X78304Y-55879D01*
X78505Y-55880D01*
X78691Y-55803D01*
X78799Y-55695D01*
X78905Y-55802D01*
X79091Y-55879D01*
X79293Y-55880D01*
X79479Y-55803D01*
X79586Y-55695D01*
X79693Y-55802D01*
X79879Y-55879D01*
X80080Y-55880D01*
X80266Y-55803D01*
X80374Y-55695D01*
X80480Y-55802D01*
X80666Y-55879D01*
X80867Y-55880D01*
X81053Y-55803D01*
X81161Y-55695D01*
X81268Y-55802D01*
X81454Y-55879D01*
X81655Y-55880D01*
X81841Y-55803D01*
X81948Y-55695D01*
X82042Y-55789D01*
X82042Y-56667D01*
X81990Y-56719D01*
X81906Y-56921D01*
X81906Y-57137D01*
X81436Y-57607D01*
X81345Y-57607D01*
X81355Y-57582D01*
X81355Y-57482D01*
X81355Y-57232D01*
X81324Y-57157D01*
X81355Y-57082D01*
X81355Y-56982D01*
X81355Y-56732D01*
X81317Y-56641D01*
X81247Y-56570D01*
X81155Y-56532D01*
X81056Y-56532D01*
X80556Y-56532D01*
X80464Y-56570D01*
X80428Y-56606D01*
X80382Y-56561D01*
X80226Y-56496D01*
X80057Y-56496D01*
X79901Y-56560D01*
X79781Y-56680D01*
X79716Y-56836D01*
X79716Y-57005D01*
X79781Y-57161D01*
X79900Y-57281D01*
X80056Y-57346D01*
X80225Y-57346D01*
X80355Y-57292D01*
X80355Y-57331D01*
X80355Y-57581D01*
X80387Y-57657D01*
X80355Y-57732D01*
X80355Y-57831D01*
X80355Y-58081D01*
X80387Y-58157D01*
X80355Y-58232D01*
X80355Y-58331D01*
X80355Y-58581D01*
X80393Y-58673D01*
X80464Y-58744D01*
X80555Y-58782D01*
X80655Y-58782D01*
X80806Y-58782D01*
X81906Y-59882D01*
X81906Y-60381D01*
X81944Y-60472D01*
X82014Y-60543D01*
X82106Y-60581D01*
X82206Y-60581D01*
X82806Y-60581D01*
X82898Y-60543D01*
X82968Y-60473D01*
X83006Y-60381D01*
X83006Y-60281D01*
X83006Y-59681D01*
X82968Y-59590D01*
X82898Y-59519D01*
X82806Y-59481D01*
X82784Y-59481D01*
X82922Y-59343D01*
X83006Y-59141D01*
X83006Y-58922D01*
X83006Y-60966D01*
X82788Y-61009D01*
X79155Y-61009D01*
X79155Y-58581D01*
X79155Y-58232D01*
X79124Y-58157D01*
X79155Y-58082D01*
X79155Y-57982D01*
X79155Y-57732D01*
X79124Y-57657D01*
X79155Y-57582D01*
X79155Y-57482D01*
X79155Y-57232D01*
X79124Y-57157D01*
X79155Y-57082D01*
X79155Y-56982D01*
X79155Y-56732D01*
X79117Y-56641D01*
X79047Y-56570D01*
X78955Y-56532D01*
X78856Y-56532D01*
X78356Y-56532D01*
X78264Y-56570D01*
X78194Y-56640D01*
X78155Y-56732D01*
X78155Y-56831D01*
X78155Y-57081D01*
X78187Y-57157D01*
X78155Y-57232D01*
X78155Y-57331D01*
X78155Y-57581D01*
X78187Y-57657D01*
X78155Y-57732D01*
X78155Y-57831D01*
X78155Y-58081D01*
X78187Y-58157D01*
X78155Y-58232D01*
X78155Y-58294D01*
X78218Y-58357D01*
X78605Y-58357D01*
X78605Y-58349D01*
X78705Y-58349D01*
X78705Y-58357D01*
X79093Y-58357D01*
X79155Y-58294D01*
X79155Y-58232D01*
X79155Y-58581D01*
X79155Y-58519D01*
X79093Y-58457D01*
X78705Y-58457D01*
X78705Y-58719D01*
X78768Y-58782D01*
X78856Y-58782D01*
X78955Y-58782D01*
X79047Y-58744D01*
X79117Y-58673D01*
X79155Y-58581D01*
X79155Y-61009D01*
X78182Y-61009D01*
X78370Y-60931D01*
X78690Y-60612D01*
X78863Y-60195D01*
X78864Y-59743D01*
X78691Y-59325D01*
X78605Y-59239D01*
X78605Y-58719D01*
X78605Y-58457D01*
X78218Y-58457D01*
X78155Y-58519D01*
X78155Y-58581D01*
X78193Y-58673D01*
X78264Y-58744D01*
X78355Y-58782D01*
X78455Y-58782D01*
X78543Y-58782D01*
X78605Y-58719D01*
X78605Y-59239D01*
X78372Y-59006D01*
X77955Y-58832D01*
X77503Y-58832D01*
X77085Y-59005D01*
X76766Y-59324D01*
X76627Y-59656D01*
X76627Y-53550D01*
X76642Y-53478D01*
X76667Y-53439D01*
X76706Y-53413D01*
X76779Y-53399D01*
X77145Y-53399D01*
X82814Y-53399D01*
X83182Y-53399D01*
X83254Y-53413D01*
X83292Y-53439D01*
X83318Y-53478D01*
X83332Y-53550D01*
X83332Y-60466D01*
M02*
