G04 (created by PCBNEW (2013-may-18)-stable) date Wed 10 Dec 2014 10:55:01 AM CST*
%MOIN*%
G04 Gerber Fmt 3.4, Leading zero omitted, Abs format*
%FSLAX34Y34*%
G01*
G70*
G90*
G04 APERTURE LIST*
%ADD10C,0.00590551*%
%ADD11R,0.06X0.06*%
%ADD12C,0.06*%
%ADD13C,0.177165*%
%ADD14R,0.0511811X0.0511811*%
%ADD15C,0.0511811*%
%ADD16C,0.035*%
%ADD17C,0.01*%
G04 APERTURE END LIST*
G54D10*
G54D11*
X82456Y-60031D03*
G54D12*
X82456Y-59031D03*
X82456Y-58031D03*
X82456Y-57031D03*
G54D13*
X77728Y-59968D03*
G54D14*
X82342Y-54586D03*
G54D15*
X82342Y-55374D03*
X81555Y-54586D03*
X81555Y-55374D03*
X80767Y-54586D03*
X80767Y-55374D03*
X79980Y-54586D03*
X79980Y-55374D03*
X79192Y-54586D03*
X79192Y-55374D03*
X78405Y-54586D03*
X78405Y-55374D03*
X77618Y-54586D03*
X77618Y-55374D03*
G54D16*
X80141Y-56921D03*
G54D17*
X82342Y-54586D02*
X82444Y-54586D01*
X83338Y-59149D02*
X82456Y-60031D01*
X83338Y-55480D02*
X83338Y-59149D01*
X82444Y-54586D02*
X83338Y-55480D01*
G54D10*
G36*
X83332Y-60466D02*
X83288Y-60687D01*
X83176Y-60855D01*
X83011Y-60965D01*
X82788Y-61009D01*
X78182Y-61009D01*
X78370Y-60931D01*
X78690Y-60612D01*
X78863Y-60195D01*
X78864Y-59743D01*
X78691Y-59325D01*
X78372Y-59006D01*
X77955Y-58832D01*
X77503Y-58832D01*
X77085Y-59005D01*
X76766Y-59324D01*
X76627Y-59656D01*
X76627Y-53550D01*
X76642Y-53478D01*
X76667Y-53439D01*
X76706Y-53413D01*
X76779Y-53399D01*
X77145Y-53399D01*
X82814Y-53399D01*
X83182Y-53399D01*
X83254Y-53413D01*
X83292Y-53439D01*
X83318Y-53478D01*
X83332Y-53550D01*
X83332Y-55050D01*
X82848Y-54565D01*
X82848Y-54281D01*
X82810Y-54189D01*
X82740Y-54118D01*
X82648Y-54080D01*
X82548Y-54080D01*
X82037Y-54080D01*
X81945Y-54118D01*
X81874Y-54188D01*
X81874Y-54190D01*
X81842Y-54157D01*
X81656Y-54080D01*
X81454Y-54080D01*
X81268Y-54157D01*
X81161Y-54264D01*
X81054Y-54157D01*
X80868Y-54080D01*
X80667Y-54080D01*
X80481Y-54157D01*
X80373Y-54264D01*
X80267Y-54157D01*
X80081Y-54080D01*
X79880Y-54080D01*
X79694Y-54157D01*
X79586Y-54264D01*
X79479Y-54157D01*
X79293Y-54080D01*
X79092Y-54080D01*
X78906Y-54157D01*
X78799Y-54264D01*
X78692Y-54157D01*
X78506Y-54080D01*
X78305Y-54080D01*
X78119Y-54157D01*
X77976Y-54299D01*
X77975Y-54304D01*
X77972Y-54303D01*
X77901Y-54374D01*
X77901Y-54232D01*
X77879Y-54141D01*
X77689Y-54075D01*
X77488Y-54087D01*
X77356Y-54141D01*
X77334Y-54232D01*
X77618Y-54515D01*
X77901Y-54232D01*
X77901Y-54374D01*
X77688Y-54586D01*
X77972Y-54869D01*
X77974Y-54869D01*
X77976Y-54872D01*
X78083Y-54980D01*
X78011Y-55052D01*
X77905Y-54945D01*
X77900Y-54943D01*
X77901Y-54940D01*
X77618Y-54657D01*
X77547Y-54728D01*
X77547Y-54586D01*
X77264Y-54303D01*
X77173Y-54325D01*
X77107Y-54515D01*
X77118Y-54716D01*
X77173Y-54847D01*
X77264Y-54869D01*
X77547Y-54586D01*
X77547Y-54728D01*
X77334Y-54940D01*
X77335Y-54943D01*
X77331Y-54944D01*
X77189Y-55087D01*
X77112Y-55272D01*
X77112Y-55474D01*
X77188Y-55660D01*
X77331Y-55802D01*
X77517Y-55879D01*
X77718Y-55880D01*
X77904Y-55803D01*
X78011Y-55695D01*
X78118Y-55802D01*
X78304Y-55879D01*
X78505Y-55880D01*
X78691Y-55803D01*
X78799Y-55695D01*
X78905Y-55802D01*
X79091Y-55879D01*
X79293Y-55880D01*
X79479Y-55803D01*
X79586Y-55695D01*
X79693Y-55802D01*
X79879Y-55879D01*
X80080Y-55880D01*
X80266Y-55803D01*
X80374Y-55695D01*
X80480Y-55802D01*
X80666Y-55879D01*
X80867Y-55880D01*
X81053Y-55803D01*
X81161Y-55695D01*
X81268Y-55802D01*
X81454Y-55879D01*
X81655Y-55880D01*
X81841Y-55803D01*
X81948Y-55695D01*
X82055Y-55802D01*
X82241Y-55879D01*
X82442Y-55880D01*
X82628Y-55803D01*
X82771Y-55660D01*
X82848Y-55475D01*
X82848Y-55414D01*
X83038Y-55604D01*
X83038Y-59025D01*
X83008Y-59055D01*
X83006Y-59019D01*
X83006Y-57922D01*
X82923Y-57720D01*
X82768Y-57565D01*
X82686Y-57531D01*
X82767Y-57498D01*
X82922Y-57343D01*
X83006Y-57141D01*
X83006Y-56922D01*
X82923Y-56720D01*
X82768Y-56565D01*
X82566Y-56481D01*
X82347Y-56481D01*
X82145Y-56564D01*
X81990Y-56719D01*
X81906Y-56921D01*
X81906Y-57140D01*
X81990Y-57342D01*
X82144Y-57497D01*
X82226Y-57531D01*
X82145Y-57564D01*
X81990Y-57719D01*
X81906Y-57921D01*
X81906Y-58140D01*
X81990Y-58342D01*
X82144Y-58497D01*
X82220Y-58528D01*
X82168Y-58550D01*
X82141Y-58645D01*
X82456Y-58960D01*
X82771Y-58645D01*
X82744Y-58550D01*
X82689Y-58530D01*
X82767Y-58498D01*
X82922Y-58343D01*
X83006Y-58141D01*
X83006Y-57922D01*
X83006Y-59019D01*
X83000Y-58894D01*
X82937Y-58743D01*
X82842Y-58716D01*
X82527Y-59031D01*
X82532Y-59037D01*
X82462Y-59107D01*
X82456Y-59102D01*
X82385Y-59172D01*
X82385Y-59031D01*
X82070Y-58716D01*
X81975Y-58743D01*
X81901Y-58949D01*
X81912Y-59168D01*
X81975Y-59319D01*
X82070Y-59346D01*
X82385Y-59031D01*
X82385Y-59172D01*
X82141Y-59417D01*
X82159Y-59481D01*
X82107Y-59481D01*
X82015Y-59519D01*
X81944Y-59589D01*
X81906Y-59681D01*
X81906Y-59781D01*
X81906Y-60381D01*
X81944Y-60472D01*
X82014Y-60543D01*
X82106Y-60581D01*
X82206Y-60581D01*
X82806Y-60581D01*
X82898Y-60543D01*
X82968Y-60473D01*
X83006Y-60381D01*
X83006Y-60281D01*
X83006Y-59905D01*
X83332Y-59579D01*
X83332Y-60466D01*
X83332Y-60466D01*
G37*
G54D17*
X83332Y-60466D02*
X83288Y-60687D01*
X83176Y-60855D01*
X83011Y-60965D01*
X82788Y-61009D01*
X78182Y-61009D01*
X78370Y-60931D01*
X78690Y-60612D01*
X78863Y-60195D01*
X78864Y-59743D01*
X78691Y-59325D01*
X78372Y-59006D01*
X77955Y-58832D01*
X77503Y-58832D01*
X77085Y-59005D01*
X76766Y-59324D01*
X76627Y-59656D01*
X76627Y-53550D01*
X76642Y-53478D01*
X76667Y-53439D01*
X76706Y-53413D01*
X76779Y-53399D01*
X77145Y-53399D01*
X82814Y-53399D01*
X83182Y-53399D01*
X83254Y-53413D01*
X83292Y-53439D01*
X83318Y-53478D01*
X83332Y-53550D01*
X83332Y-55050D01*
X82848Y-54565D01*
X82848Y-54281D01*
X82810Y-54189D01*
X82740Y-54118D01*
X82648Y-54080D01*
X82548Y-54080D01*
X82037Y-54080D01*
X81945Y-54118D01*
X81874Y-54188D01*
X81874Y-54190D01*
X81842Y-54157D01*
X81656Y-54080D01*
X81454Y-54080D01*
X81268Y-54157D01*
X81161Y-54264D01*
X81054Y-54157D01*
X80868Y-54080D01*
X80667Y-54080D01*
X80481Y-54157D01*
X80373Y-54264D01*
X80267Y-54157D01*
X80081Y-54080D01*
X79880Y-54080D01*
X79694Y-54157D01*
X79586Y-54264D01*
X79479Y-54157D01*
X79293Y-54080D01*
X79092Y-54080D01*
X78906Y-54157D01*
X78799Y-54264D01*
X78692Y-54157D01*
X78506Y-54080D01*
X78305Y-54080D01*
X78119Y-54157D01*
X77976Y-54299D01*
X77975Y-54304D01*
X77972Y-54303D01*
X77901Y-54374D01*
X77901Y-54232D01*
X77879Y-54141D01*
X77689Y-54075D01*
X77488Y-54087D01*
X77356Y-54141D01*
X77334Y-54232D01*
X77618Y-54515D01*
X77901Y-54232D01*
X77901Y-54374D01*
X77688Y-54586D01*
X77972Y-54869D01*
X77974Y-54869D01*
X77976Y-54872D01*
X78083Y-54980D01*
X78011Y-55052D01*
X77905Y-54945D01*
X77900Y-54943D01*
X77901Y-54940D01*
X77618Y-54657D01*
X77547Y-54728D01*
X77547Y-54586D01*
X77264Y-54303D01*
X77173Y-54325D01*
X77107Y-54515D01*
X77118Y-54716D01*
X77173Y-54847D01*
X77264Y-54869D01*
X77547Y-54586D01*
X77547Y-54728D01*
X77334Y-54940D01*
X77335Y-54943D01*
X77331Y-54944D01*
X77189Y-55087D01*
X77112Y-55272D01*
X77112Y-55474D01*
X77188Y-55660D01*
X77331Y-55802D01*
X77517Y-55879D01*
X77718Y-55880D01*
X77904Y-55803D01*
X78011Y-55695D01*
X78118Y-55802D01*
X78304Y-55879D01*
X78505Y-55880D01*
X78691Y-55803D01*
X78799Y-55695D01*
X78905Y-55802D01*
X79091Y-55879D01*
X79293Y-55880D01*
X79479Y-55803D01*
X79586Y-55695D01*
X79693Y-55802D01*
X79879Y-55879D01*
X80080Y-55880D01*
X80266Y-55803D01*
X80374Y-55695D01*
X80480Y-55802D01*
X80666Y-55879D01*
X80867Y-55880D01*
X81053Y-55803D01*
X81161Y-55695D01*
X81268Y-55802D01*
X81454Y-55879D01*
X81655Y-55880D01*
X81841Y-55803D01*
X81948Y-55695D01*
X82055Y-55802D01*
X82241Y-55879D01*
X82442Y-55880D01*
X82628Y-55803D01*
X82771Y-55660D01*
X82848Y-55475D01*
X82848Y-55414D01*
X83038Y-55604D01*
X83038Y-59025D01*
X83008Y-59055D01*
X83006Y-59019D01*
X83006Y-57922D01*
X82923Y-57720D01*
X82768Y-57565D01*
X82686Y-57531D01*
X82767Y-57498D01*
X82922Y-57343D01*
X83006Y-57141D01*
X83006Y-56922D01*
X82923Y-56720D01*
X82768Y-56565D01*
X82566Y-56481D01*
X82347Y-56481D01*
X82145Y-56564D01*
X81990Y-56719D01*
X81906Y-56921D01*
X81906Y-57140D01*
X81990Y-57342D01*
X82144Y-57497D01*
X82226Y-57531D01*
X82145Y-57564D01*
X81990Y-57719D01*
X81906Y-57921D01*
X81906Y-58140D01*
X81990Y-58342D01*
X82144Y-58497D01*
X82220Y-58528D01*
X82168Y-58550D01*
X82141Y-58645D01*
X82456Y-58960D01*
X82771Y-58645D01*
X82744Y-58550D01*
X82689Y-58530D01*
X82767Y-58498D01*
X82922Y-58343D01*
X83006Y-58141D01*
X83006Y-57922D01*
X83006Y-59019D01*
X83000Y-58894D01*
X82937Y-58743D01*
X82842Y-58716D01*
X82527Y-59031D01*
X82532Y-59037D01*
X82462Y-59107D01*
X82456Y-59102D01*
X82385Y-59172D01*
X82385Y-59031D01*
X82070Y-58716D01*
X81975Y-58743D01*
X81901Y-58949D01*
X81912Y-59168D01*
X81975Y-59319D01*
X82070Y-59346D01*
X82385Y-59031D01*
X82385Y-59172D01*
X82141Y-59417D01*
X82159Y-59481D01*
X82107Y-59481D01*
X82015Y-59519D01*
X81944Y-59589D01*
X81906Y-59681D01*
X81906Y-59781D01*
X81906Y-60381D01*
X81944Y-60472D01*
X82014Y-60543D01*
X82106Y-60581D01*
X82206Y-60581D01*
X82806Y-60581D01*
X82898Y-60543D01*
X82968Y-60473D01*
X83006Y-60381D01*
X83006Y-60281D01*
X83006Y-59905D01*
X83332Y-59579D01*
X83332Y-60466D01*
M02*
