M48
INCH,TZ
T1C0.025
T2C0.031
T3C0.040
T4C0.177
%
G90
G05
T1
X080142Y-056921
T2
X077618Y-054587
X077618Y-055374
X078406Y-054587
X078406Y-055374
X079193Y-054587
X079193Y-055374
X079980Y-054587
X079980Y-055374
X080768Y-054587
X080768Y-055374
X081555Y-054587
X081555Y-055374
X082343Y-054587
X082343Y-055374
T3
X082457Y-057031
X082457Y-058031
X082457Y-059031
X082457Y-060031
T4
X077728Y-059969
T0
M30
